<svg xmlns="http://www.w3.org/2000/svg" xmlns:xlink="http://www.w3.org/1999/xlink" width="100" zoomAndPan="magnify" viewBox="0 0 75 525.000007" height="700" preserveAspectRatio="xMidYMid meet" version="1.0"><defs><clipPath id="e3303cc0b3"><path d="M 46.511719 0.589844 L 64.324219 0.589844 L 64.324219 18.503906 L 46.511719 18.503906 Z M 46.511719 0.589844 " clip-rule="nonzero"/></clipPath><clipPath id="d3a9256813"><path d="M 10.425781 0 L 29 0 L 29 19 L 10.425781 19 Z M 10.425781 0 " clip-rule="nonzero"/></clipPath><clipPath id="8e9643f338"><path d="M 46.511719 28.621094 L 64.324219 28.621094 L 64.324219 46.746094 L 46.511719 46.746094 Z M 46.511719 28.621094 " clip-rule="nonzero"/></clipPath><clipPath id="e3fae06a50"><path d="M 10.425781 28 L 29 28 L 29 47 L 10.425781 47 Z M 10.425781 28 " clip-rule="nonzero"/></clipPath><clipPath id="63d843bd16"><path d="M 46.511719 56.652344 L 64.324219 56.652344 L 64.324219 74.777344 L 46.511719 74.777344 Z M 46.511719 56.652344 " clip-rule="nonzero"/></clipPath><clipPath id="6dce6cac71"><path d="M 10.425781 56 L 29 56 L 29 75 L 10.425781 75 Z M 10.425781 56 " clip-rule="nonzero"/></clipPath><clipPath id="fb97d96535"><path d="M 46.511719 84.683594 L 64.324219 84.683594 L 64.324219 102.808594 L 46.511719 102.808594 Z M 46.511719 84.683594 " clip-rule="nonzero"/></clipPath><clipPath id="cfa8e64dbe"><path d="M 10.425781 84 L 29 84 L 29 103 L 10.425781 103 Z M 10.425781 84 " clip-rule="nonzero"/></clipPath><clipPath id="498af1e09c"><path d="M 46.511719 112.921875 L 64.324219 112.921875 L 64.324219 130.835938 L 46.511719 130.835938 Z M 46.511719 112.921875 " clip-rule="nonzero"/></clipPath><clipPath id="575a1679bf"><path d="M 10.425781 112 L 29 112 L 29 131 L 10.425781 131 Z M 10.425781 112 " clip-rule="nonzero"/></clipPath><clipPath id="85857e893d"><path d="M 46.511719 141 L 64.324219 141 L 64.324219 158.867188 L 46.511719 158.867188 Z M 46.511719 141 " clip-rule="nonzero"/></clipPath><clipPath id="0cfb85789c"><path d="M 10.425781 141 L 29 141 L 29 159 L 10.425781 159 Z M 10.425781 141 " clip-rule="nonzero"/></clipPath><clipPath id="7141fbf8c4"><path d="M 46.511719 169 L 64.324219 169 L 64.324219 187 L 46.511719 187 Z M 46.511719 169 " clip-rule="nonzero"/></clipPath><clipPath id="0764c7d97e"><path d="M 10.425781 169 L 29 169 L 29 187 L 10.425781 187 Z M 10.425781 169 " clip-rule="nonzero"/></clipPath><clipPath id="92614ce06e"><path d="M 46.511719 197.015625 L 64.324219 197.015625 L 64.324219 215.140625 L 46.511719 215.140625 Z M 46.511719 197.015625 " clip-rule="nonzero"/></clipPath><clipPath id="b489eb160a"><path d="M 10.425781 197 L 29 197 L 29 216 L 10.425781 216 Z M 10.425781 197 " clip-rule="nonzero"/></clipPath><clipPath id="6b1b56c0fd"><path d="M 46.511719 225.253906 L 64.324219 225.253906 L 64.324219 243.171875 L 46.511719 243.171875 Z M 46.511719 225.253906 " clip-rule="nonzero"/></clipPath><clipPath id="73c764db7d"><path d="M 10.425781 225 L 29 225 L 29 244 L 10.425781 244 Z M 10.425781 225 " clip-rule="nonzero"/></clipPath><clipPath id="26621cf254"><path d="M 46.511719 253.285156 L 64.324219 253.285156 L 64.324219 271.199219 L 46.511719 271.199219 Z M 46.511719 253.285156 " clip-rule="nonzero"/></clipPath><clipPath id="6241d9e636"><path d="M 10.425781 253 L 29 253 L 29 272 L 10.425781 272 Z M 10.425781 253 " clip-rule="nonzero"/></clipPath><clipPath id="9c121897d5"><path d="M 46.511719 281.316406 L 64.324219 281.316406 L 64.324219 299.441406 L 46.511719 299.441406 Z M 46.511719 281.316406 " clip-rule="nonzero"/></clipPath><clipPath id="9d1d9f94cf"><path d="M 10.425781 281 L 29 281 L 29 300 L 10.425781 300 Z M 10.425781 281 " clip-rule="nonzero"/></clipPath><clipPath id="e178c2e819"><path d="M 46.511719 309.347656 L 64.324219 309.347656 L 64.324219 327.472656 L 46.511719 327.472656 Z M 46.511719 309.347656 " clip-rule="nonzero"/></clipPath><clipPath id="945031c83f"><path d="M 10.425781 309 L 29 309 L 29 328 L 10.425781 328 Z M 10.425781 309 " clip-rule="nonzero"/></clipPath><clipPath id="52a8091458"><path d="M 46.511719 337.378906 L 64.324219 337.378906 L 64.324219 355.503906 L 46.511719 355.503906 Z M 46.511719 337.378906 " clip-rule="nonzero"/></clipPath><clipPath id="f9615ab064"><path d="M 10.425781 337 L 29 337 L 29 356 L 10.425781 356 Z M 10.425781 337 " clip-rule="nonzero"/></clipPath><clipPath id="9cd5df4cdc"><path d="M 46.511719 365.617188 L 64.324219 365.617188 L 64.324219 383.53125 L 46.511719 383.53125 Z M 46.511719 365.617188 " clip-rule="nonzero"/></clipPath><clipPath id="336826c6ef"><path d="M 10.425781 365 L 29 365 L 29 384 L 10.425781 384 Z M 10.425781 365 " clip-rule="nonzero"/></clipPath><clipPath id="064c9917d0"><path d="M 46.511719 393.648438 L 64.324219 393.648438 L 64.324219 411.5625 L 46.511719 411.5625 Z M 46.511719 393.648438 " clip-rule="nonzero"/></clipPath><clipPath id="6611fcd964"><path d="M 10.425781 393 L 29 393 L 29 412 L 10.425781 412 Z M 10.425781 393 " clip-rule="nonzero"/></clipPath><clipPath id="66eb3eaa84"><path d="M 46.511719 421.679688 L 64.324219 421.679688 L 64.324219 439.804688 L 46.511719 439.804688 Z M 46.511719 421.679688 " clip-rule="nonzero"/></clipPath><clipPath id="9aebe6c9bc"><path d="M 10.425781 421 L 29 421 L 29 440 L 10.425781 440 Z M 10.425781 421 " clip-rule="nonzero"/></clipPath><clipPath id="4a6aa7e730"><path d="M 46.511719 449.710938 L 64.324219 449.710938 L 64.324219 467.835938 L 46.511719 467.835938 Z M 46.511719 449.710938 " clip-rule="nonzero"/></clipPath><clipPath id="86dbcfcebe"><path d="M 10.425781 449 L 29 449 L 29 468 L 10.425781 468 Z M 10.425781 449 " clip-rule="nonzero"/></clipPath><clipPath id="476e13a8a6"><path d="M 46.511719 477.742188 L 64.324219 477.742188 L 64.324219 495.867188 L 46.511719 495.867188 Z M 46.511719 477.742188 " clip-rule="nonzero"/></clipPath><clipPath id="a4c58da280"><path d="M 10.425781 477 L 29 477 L 29 496 L 10.425781 496 Z M 10.425781 477 " clip-rule="nonzero"/></clipPath><clipPath id="48641a9349"><path d="M 46.511719 506 L 64.324219 506 L 64.324219 523.855469 L 46.511719 523.855469 Z M 46.511719 506 " clip-rule="nonzero"/></clipPath><clipPath id="501c98ae5b"><path d="M 10.425781 506 L 28.257812 506 L 28.257812 523.855469 L 10.425781 523.855469 Z M 10.425781 506 " clip-rule="nonzero"/></clipPath></defs><g clip-path="url(#e3303cc0b3)"><path fill="#484b4c" d="M 64.335938 9.574219 C 64.335938 14.496094 60.363281 18.484375 55.460938 18.484375 C 50.558594 18.484375 46.589844 14.496094 46.589844 9.574219 C 46.589844 4.652344 50.558594 0.660156 55.460938 0.660156 C 60.363281 0.660156 64.335938 4.652344 64.335938 9.574219 " fill-opacity="1" fill-rule="nonzero"/></g><g clip-path="url(#d3a9256813)"><path fill="#484b4c" d="M 28.171875 9.574219 C 28.171875 14.496094 24.203125 18.484375 19.300781 18.484375 C 14.398438 18.484375 10.425781 14.496094 10.425781 9.574219 C 10.425781 4.652344 14.398438 0.660156 19.300781 0.660156 C 24.203125 0.660156 28.171875 4.652344 28.171875 9.574219 " fill-opacity="1" fill-rule="nonzero"/></g><path fill="#a5a7a6" d="M 54.585938 7.964844 C 54.265625 7.964844 53.9375 7.890625 53.632812 7.730469 C 53.574219 7.699219 46.953125 4.367188 36.660156 4.351562 C 36.636719 4.351562 36.609375 4.351562 36.585938 4.351562 C 25.613281 4.351562 19.265625 7.683594 19.203125 7.714844 C 18.1875 8.257812 16.925781 7.875 16.382812 6.859375 C 15.839844 5.84375 16.214844 4.582031 17.226562 4.03125 C 17.515625 3.875 24.496094 0.160156 36.667969 0.167969 C 48.03125 0.183594 55.242188 3.859375 55.542969 4.011719 C 56.566406 4.542969 56.96875 5.804688 56.441406 6.832031 C 56.070312 7.550781 55.339844 7.964844 54.585938 7.964844 " fill-opacity="1" fill-rule="nonzero"/><path fill="#a5a7a6" d="M 54.585938 15.480469 C 54.265625 15.480469 53.9375 15.40625 53.632812 15.246094 C 53.574219 15.214844 46.953125 11.882812 36.660156 11.867188 C 36.636719 11.867188 36.609375 11.867188 36.585938 11.867188 C 25.613281 11.867188 19.261719 15.195312 19.203125 15.230469 C 18.1875 15.773438 16.925781 15.390625 16.382812 14.375 C 15.839844 13.359375 16.214844 12.09375 17.226562 11.546875 C 17.515625 11.386719 24.476562 7.683594 36.585938 7.683594 C 36.613281 7.683594 36.640625 7.683594 36.667969 7.683594 C 48.03125 7.699219 55.242188 11.371094 55.542969 11.527344 C 56.566406 12.058594 56.96875 13.320312 56.441406 14.347656 C 56.070312 15.066406 55.339844 15.480469 54.585938 15.480469 " fill-opacity="1" fill-rule="nonzero"/><g clip-path="url(#8e9643f338)"><path fill="#484b4c" d="M 64.335938 37.648438 C 64.335938 42.570312 60.363281 46.5625 55.460938 46.5625 C 50.558594 46.5625 46.589844 42.570312 46.589844 37.648438 C 46.589844 32.722656 50.558594 28.734375 55.460938 28.734375 C 60.363281 28.734375 64.335938 32.722656 64.335938 37.648438 " fill-opacity="1" fill-rule="nonzero"/></g><g clip-path="url(#e3fae06a50)"><path fill="#484b4c" d="M 28.171875 37.648438 C 28.171875 42.570312 24.203125 46.5625 19.300781 46.5625 C 14.398438 46.5625 10.425781 42.570312 10.425781 37.648438 C 10.425781 32.722656 14.398438 28.734375 19.300781 28.734375 C 24.203125 28.734375 28.171875 32.722656 28.171875 37.648438 " fill-opacity="1" fill-rule="nonzero"/></g><path fill="#a5a7a6" d="M 54.585938 36.042969 C 54.265625 36.042969 53.9375 35.964844 53.632812 35.808594 C 53.574219 35.777344 46.953125 32.445312 36.660156 32.429688 C 36.636719 32.429688 36.609375 32.429688 36.585938 32.429688 C 25.613281 32.429688 19.261719 35.757812 19.203125 35.792969 C 18.1875 36.332031 16.925781 35.953125 16.382812 34.9375 C 15.839844 33.917969 16.214844 32.65625 17.226562 32.105469 C 17.515625 31.949219 24.476562 28.246094 36.585938 28.246094 C 36.613281 28.246094 36.640625 28.246094 36.667969 28.246094 C 48.03125 28.261719 55.242188 31.933594 55.542969 32.089844 C 56.566406 32.621094 56.96875 33.882812 56.441406 34.90625 C 56.070312 35.625 55.339844 36.042969 54.585938 36.042969 " fill-opacity="1" fill-rule="nonzero"/><path fill="#a5a7a6" d="M 54.585938 43.554688 C 54.265625 43.554688 53.9375 43.480469 53.632812 43.320312 C 53.570312 43.289062 46.953125 39.957031 36.660156 39.941406 C 36.636719 39.941406 36.609375 39.941406 36.585938 39.941406 C 25.613281 39.941406 19.265625 43.273438 19.203125 43.308594 C 18.1875 43.847656 16.925781 43.46875 16.382812 42.453125 C 15.839844 41.433594 16.214844 40.171875 17.226562 39.621094 C 17.515625 39.464844 24.476562 35.761719 36.585938 35.761719 C 36.613281 35.761719 36.640625 35.761719 36.667969 35.761719 C 48.03125 35.773438 55.242188 39.449219 55.542969 39.605469 C 56.566406 40.132812 56.96875 41.394531 56.441406 42.421875 C 56.070312 43.140625 55.339844 43.554688 54.585938 43.554688 " fill-opacity="1" fill-rule="nonzero"/><g clip-path="url(#63d843bd16)"><path fill="#484b4c" d="M 64.335938 65.726562 C 64.335938 70.648438 60.363281 74.636719 55.460938 74.636719 C 50.558594 74.636719 46.589844 70.648438 46.589844 65.726562 C 46.589844 60.800781 50.558594 56.808594 55.460938 56.808594 C 60.363281 56.808594 64.335938 60.800781 64.335938 65.726562 " fill-opacity="1" fill-rule="nonzero"/></g><g clip-path="url(#6dce6cac71)"><path fill="#484b4c" d="M 28.171875 65.726562 C 28.171875 70.648438 24.203125 74.636719 19.300781 74.636719 C 14.398438 74.636719 10.425781 70.648438 10.425781 65.726562 C 10.425781 60.800781 14.398438 56.808594 19.300781 56.808594 C 24.203125 56.808594 28.171875 60.800781 28.171875 65.726562 " fill-opacity="1" fill-rule="nonzero"/></g><path fill="#a5a7a6" d="M 54.585938 64.117188 C 54.265625 64.117188 53.9375 64.042969 53.632812 63.882812 C 53.570312 63.851562 46.953125 60.519531 36.660156 60.503906 C 36.636719 60.503906 36.609375 60.503906 36.585938 60.503906 C 25.613281 60.503906 19.265625 63.832031 19.203125 63.867188 C 18.1875 64.410156 16.925781 64.027344 16.382812 63.011719 C 15.839844 61.996094 16.214844 60.730469 17.226562 60.183594 C 17.515625 60.027344 24.476562 56.320312 36.585938 56.320312 C 36.613281 56.320312 36.640625 56.320312 36.667969 56.320312 C 48.03125 56.339844 55.242188 60.007812 55.542969 60.164062 C 56.566406 60.695312 56.96875 61.957031 56.441406 62.984375 C 56.070312 63.703125 55.339844 64.117188 54.585938 64.117188 " fill-opacity="1" fill-rule="nonzero"/><path fill="#a5a7a6" d="M 54.585938 71.628906 C 54.265625 71.628906 53.9375 71.554688 53.632812 71.398438 C 53.570312 71.367188 46.953125 68.035156 36.660156 68.019531 C 36.636719 68.019531 36.609375 68.019531 36.585938 68.019531 C 25.613281 68.019531 19.265625 71.347656 19.203125 71.382812 C 18.1875 71.921875 16.925781 71.542969 16.382812 70.527344 C 15.839844 69.511719 16.214844 68.246094 17.226562 67.699219 C 17.515625 67.539062 24.476562 63.832031 36.585938 63.832031 C 36.613281 63.832031 36.640625 63.832031 36.667969 63.832031 C 48.03125 63.851562 55.242188 67.523438 55.542969 67.679688 C 56.566406 68.210938 56.96875 69.472656 56.441406 70.5 C 56.070312 71.21875 55.339844 71.628906 54.585938 71.628906 " fill-opacity="1" fill-rule="nonzero"/><g clip-path="url(#fb97d96535)"><path fill="#484b4c" d="M 64.335938 93.800781 C 64.335938 98.722656 60.363281 102.714844 55.460938 102.714844 C 50.558594 102.714844 46.589844 98.722656 46.589844 93.800781 C 46.589844 88.878906 50.558594 84.886719 55.460938 84.886719 C 60.363281 84.886719 64.335938 88.878906 64.335938 93.800781 " fill-opacity="1" fill-rule="nonzero"/></g><g clip-path="url(#cfa8e64dbe)"><path fill="#484b4c" d="M 28.171875 93.800781 C 28.171875 98.722656 24.203125 102.714844 19.300781 102.714844 C 14.398438 102.714844 10.425781 98.722656 10.425781 93.800781 C 10.425781 88.878906 14.398438 84.886719 19.300781 84.886719 C 24.203125 84.886719 28.171875 88.878906 28.171875 93.800781 " fill-opacity="1" fill-rule="nonzero"/></g><path fill="#a5a7a6" d="M 54.585938 92.195312 C 54.265625 92.195312 53.9375 92.117188 53.632812 91.960938 C 53.570312 91.929688 46.953125 88.597656 36.660156 88.582031 C 36.636719 88.582031 36.609375 88.582031 36.585938 88.582031 C 25.613281 88.582031 19.265625 91.910156 19.203125 91.941406 C 18.1875 92.484375 16.925781 92.101562 16.382812 91.089844 C 15.839844 90.074219 16.214844 88.808594 17.226562 88.261719 C 17.515625 88.101562 24.476562 84.398438 36.585938 84.398438 C 36.613281 84.398438 36.640625 84.398438 36.667969 84.398438 C 48.03125 84.414062 55.242188 88.082031 55.542969 88.242188 C 56.566406 88.769531 56.96875 90.035156 56.441406 91.058594 C 56.070312 91.78125 55.339844 92.195312 54.585938 92.195312 " fill-opacity="1" fill-rule="nonzero"/><path fill="#a5a7a6" d="M 54.585938 99.707031 C 54.265625 99.707031 53.9375 99.632812 53.632812 99.472656 C 53.570312 99.441406 46.953125 96.109375 36.660156 96.097656 C 36.636719 96.097656 36.609375 96.097656 36.585938 96.097656 C 25.613281 96.097656 19.265625 99.425781 19.203125 99.457031 C 18.1875 100 16.925781 99.617188 16.382812 98.601562 C 15.839844 97.585938 16.214844 96.324219 17.226562 95.773438 C 17.515625 95.617188 24.476562 91.910156 36.585938 91.910156 C 36.613281 91.910156 36.636719 91.910156 36.667969 91.910156 C 48.03125 91.925781 55.242188 95.597656 55.542969 95.753906 C 56.566406 96.285156 56.96875 97.546875 56.441406 98.574219 C 56.070312 99.292969 55.339844 99.707031 54.585938 99.707031 " fill-opacity="1" fill-rule="nonzero"/><g clip-path="url(#498af1e09c)"><path fill="#484b4c" d="M 64.335938 121.875 C 64.335938 126.800781 60.363281 130.792969 55.460938 130.792969 C 50.558594 130.792969 46.589844 126.800781 46.589844 121.875 C 46.589844 116.953125 50.558594 112.960938 55.460938 112.960938 C 60.363281 112.960938 64.335938 116.953125 64.335938 121.875 " fill-opacity="1" fill-rule="nonzero"/></g><g clip-path="url(#575a1679bf)"><path fill="#484b4c" d="M 28.171875 121.875 C 28.171875 126.800781 24.203125 130.792969 19.300781 130.792969 C 14.398438 130.792969 10.425781 126.800781 10.425781 121.875 C 10.425781 116.953125 14.398438 112.960938 19.300781 112.960938 C 24.203125 112.960938 28.171875 116.953125 28.171875 121.875 " fill-opacity="1" fill-rule="nonzero"/></g><path fill="#a5a7a6" d="M 54.585938 120.269531 C 54.265625 120.269531 53.9375 120.195312 53.632812 120.035156 C 53.574219 120.003906 46.953125 116.671875 36.660156 116.65625 C 36.636719 116.65625 36.609375 116.65625 36.585938 116.65625 C 25.613281 116.65625 19.261719 119.984375 19.203125 120.019531 C 18.1875 120.5625 16.925781 120.179688 16.382812 119.164062 C 15.839844 118.148438 16.214844 116.882812 17.226562 116.335938 C 17.515625 116.179688 24.476562 112.472656 36.585938 112.472656 C 36.613281 112.472656 36.640625 112.472656 36.667969 112.472656 C 48.03125 112.488281 55.242188 116.160156 55.542969 116.316406 C 56.566406 116.847656 56.96875 118.109375 56.441406 119.136719 C 56.070312 119.855469 55.339844 120.269531 54.585938 120.269531 " fill-opacity="1" fill-rule="nonzero"/><path fill="#a5a7a6" d="M 54.585938 127.785156 C 54.265625 127.785156 53.9375 127.707031 53.632812 127.550781 C 53.574219 127.519531 46.953125 124.1875 36.660156 124.171875 C 36.636719 124.171875 36.609375 124.171875 36.585938 124.171875 C 25.613281 124.171875 19.261719 127.5 19.203125 127.53125 C 18.1875 128.074219 16.925781 127.691406 16.382812 126.675781 C 15.839844 125.660156 16.214844 124.398438 17.226562 123.847656 C 17.515625 123.691406 24.476562 119.988281 36.585938 119.988281 C 36.613281 119.988281 36.640625 119.988281 36.667969 119.988281 C 48.03125 120.003906 55.242188 123.675781 55.542969 123.832031 C 56.566406 124.359375 56.96875 125.625 56.441406 126.648438 C 56.070312 127.371094 55.339844 127.785156 54.585938 127.785156 " fill-opacity="1" fill-rule="nonzero"/><g clip-path="url(#85857e893d)"><path fill="#484b4c" d="M 64.335938 149.953125 C 64.335938 154.875 60.363281 158.867188 55.460938 158.867188 C 50.558594 158.867188 46.589844 154.875 46.589844 149.953125 C 46.589844 145.03125 50.558594 141.039062 55.460938 141.039062 C 60.363281 141.039062 64.335938 145.03125 64.335938 149.953125 " fill-opacity="1" fill-rule="nonzero"/></g><g clip-path="url(#0cfb85789c)"><path fill="#484b4c" d="M 28.171875 149.953125 C 28.171875 154.875 24.203125 158.867188 19.300781 158.867188 C 14.398438 158.867188 10.425781 154.875 10.425781 149.953125 C 10.425781 145.03125 14.398438 141.039062 19.300781 141.039062 C 24.203125 141.039062 28.171875 145.03125 28.171875 149.953125 " fill-opacity="1" fill-rule="nonzero"/></g><path fill="#a5a7a6" d="M 54.585938 148.34375 C 54.265625 148.34375 53.9375 148.269531 53.632812 148.109375 C 53.574219 148.078125 46.953125 144.746094 36.660156 144.734375 C 36.636719 144.734375 36.609375 144.734375 36.585938 144.734375 C 25.613281 144.734375 19.261719 148.0625 19.203125 148.097656 C 18.1875 148.636719 16.925781 148.253906 16.382812 147.242188 C 15.839844 146.226562 16.214844 144.960938 17.226562 144.414062 C 17.515625 144.253906 24.476562 140.546875 36.585938 140.546875 C 36.613281 140.546875 36.640625 140.546875 36.667969 140.546875 C 48.03125 140.5625 55.242188 144.238281 55.542969 144.394531 C 56.566406 144.921875 56.96875 146.183594 56.441406 147.210938 C 56.070312 147.933594 55.339844 148.34375 54.585938 148.34375 " fill-opacity="1" fill-rule="nonzero"/><path fill="#a5a7a6" d="M 54.585938 155.859375 C 54.265625 155.859375 53.9375 155.785156 53.632812 155.625 C 53.570312 155.59375 46.953125 152.261719 36.660156 152.25 C 36.636719 152.25 36.609375 152.25 36.585938 152.25 C 25.613281 152.25 19.265625 155.574219 19.203125 155.609375 C 18.1875 156.152344 16.925781 155.769531 16.382812 154.753906 C 15.839844 153.738281 16.214844 152.472656 17.226562 151.925781 C 17.515625 151.765625 24.476562 148.0625 36.585938 148.0625 C 36.613281 148.0625 36.640625 148.0625 36.667969 148.0625 C 48.03125 148.078125 55.242188 151.75 55.542969 151.90625 C 56.566406 152.4375 56.96875 153.699219 56.441406 154.726562 C 56.070312 155.445312 55.339844 155.859375 54.585938 155.859375 " fill-opacity="1" fill-rule="nonzero"/><g clip-path="url(#7141fbf8c4)"><path fill="#484b4c" d="M 64.335938 178.027344 C 64.335938 182.949219 60.363281 186.941406 55.460938 186.941406 C 50.558594 186.941406 46.589844 182.949219 46.589844 178.027344 C 46.589844 173.105469 50.558594 169.113281 55.460938 169.113281 C 60.363281 169.113281 64.335938 173.105469 64.335938 178.027344 " fill-opacity="1" fill-rule="nonzero"/></g><g clip-path="url(#0764c7d97e)"><path fill="#484b4c" d="M 28.171875 178.027344 C 28.171875 182.949219 24.203125 186.941406 19.300781 186.941406 C 14.398438 186.941406 10.425781 182.949219 10.425781 178.027344 C 10.425781 173.105469 14.398438 169.113281 19.300781 169.113281 C 24.203125 169.113281 28.171875 173.105469 28.171875 178.027344 " fill-opacity="1" fill-rule="nonzero"/></g><path fill="#a5a7a6" d="M 54.585938 176.421875 C 54.265625 176.421875 53.9375 176.347656 53.632812 176.1875 C 53.570312 176.15625 46.953125 172.824219 36.660156 172.808594 C 36.636719 172.808594 36.609375 172.808594 36.585938 172.808594 C 25.613281 172.808594 19.265625 176.136719 19.203125 176.171875 C 18.1875 176.714844 16.925781 176.332031 16.382812 175.316406 C 15.839844 174.300781 16.214844 173.039062 17.226562 172.488281 C 17.515625 172.328125 24.476562 168.625 36.585938 168.625 C 36.613281 168.625 36.640625 168.625 36.667969 168.625 C 48.03125 168.640625 55.242188 172.3125 55.542969 172.46875 C 56.566406 173 56.96875 174.261719 56.441406 175.289062 C 56.070312 176.007812 55.339844 176.421875 54.585938 176.421875 " fill-opacity="1" fill-rule="nonzero"/><path fill="#a5a7a6" d="M 54.585938 183.933594 C 54.265625 183.933594 53.9375 183.859375 53.632812 183.699219 C 53.570312 183.667969 46.953125 180.335938 36.660156 180.324219 C 36.636719 180.324219 36.609375 180.324219 36.585938 180.324219 C 25.613281 180.324219 19.265625 183.652344 19.203125 183.6875 C 18.1875 184.226562 16.925781 183.847656 16.382812 182.832031 C 15.839844 181.816406 16.214844 180.550781 17.226562 180.003906 C 17.515625 179.84375 24.476562 176.140625 36.585938 176.140625 C 36.613281 176.140625 36.640625 176.140625 36.667969 176.140625 C 48.03125 176.152344 55.242188 179.828125 55.542969 179.984375 C 56.566406 180.511719 56.96875 181.773438 56.441406 182.800781 C 56.070312 183.523438 55.339844 183.933594 54.585938 183.933594 " fill-opacity="1" fill-rule="nonzero"/><g clip-path="url(#92614ce06e)"><path fill="#484b4c" d="M 64.335938 206.105469 C 64.335938 211.027344 60.363281 215.019531 55.460938 215.019531 C 50.558594 215.019531 46.589844 211.027344 46.589844 206.105469 C 46.589844 201.179688 50.558594 197.1875 55.460938 197.1875 C 60.363281 197.1875 64.335938 201.179688 64.335938 206.105469 " fill-opacity="1" fill-rule="nonzero"/></g><g clip-path="url(#b489eb160a)"><path fill="#484b4c" d="M 28.171875 206.105469 C 28.171875 211.027344 24.203125 215.019531 19.300781 215.019531 C 14.398438 215.019531 10.425781 211.027344 10.425781 206.105469 C 10.425781 201.179688 14.398438 197.1875 19.300781 197.1875 C 24.203125 197.1875 28.171875 201.179688 28.171875 206.105469 " fill-opacity="1" fill-rule="nonzero"/></g><path fill="#a5a7a6" d="M 54.585938 204.496094 C 54.265625 204.496094 53.9375 204.421875 53.632812 204.261719 C 53.570312 204.230469 46.953125 200.898438 36.660156 200.882812 C 36.636719 200.882812 36.609375 200.882812 36.585938 200.882812 C 25.613281 200.882812 19.265625 204.214844 19.203125 204.246094 C 18.1875 204.789062 16.925781 204.40625 16.382812 203.390625 C 15.839844 202.375 16.214844 201.113281 17.226562 200.5625 C 17.515625 200.40625 24.476562 196.699219 36.585938 196.699219 C 36.613281 196.699219 36.640625 196.699219 36.667969 196.699219 C 48.03125 196.714844 55.242188 200.390625 55.542969 200.542969 C 56.566406 201.074219 56.96875 202.335938 56.441406 203.363281 C 56.070312 204.082031 55.339844 204.496094 54.585938 204.496094 " fill-opacity="1" fill-rule="nonzero"/><path fill="#a5a7a6" d="M 54.585938 212.007812 C 54.265625 212.007812 53.9375 211.9375 53.632812 211.777344 C 53.574219 211.746094 46.953125 208.414062 36.660156 208.398438 C 36.636719 208.398438 36.609375 208.398438 36.585938 208.398438 C 25.613281 208.398438 19.261719 211.726562 19.203125 211.761719 C 18.1875 212.300781 16.925781 211.921875 16.382812 210.90625 C 15.839844 209.890625 16.214844 208.625 17.226562 208.078125 C 17.515625 207.917969 24.476562 204.214844 36.585938 204.214844 C 36.613281 204.214844 36.640625 204.214844 36.667969 204.214844 C 48.03125 204.230469 55.242188 207.902344 55.542969 208.058594 C 56.566406 208.589844 56.96875 209.851562 56.441406 210.878906 C 56.070312 211.597656 55.339844 212.007812 54.585938 212.007812 " fill-opacity="1" fill-rule="nonzero"/><g clip-path="url(#6b1b56c0fd)"><path fill="#484b4c" d="M 64.335938 234.179688 C 64.335938 239.101562 60.363281 243.09375 55.460938 243.09375 C 50.558594 243.09375 46.589844 239.101562 46.589844 234.179688 C 46.589844 229.257812 50.558594 225.265625 55.460938 225.265625 C 60.363281 225.265625 64.335938 229.257812 64.335938 234.179688 " fill-opacity="1" fill-rule="nonzero"/></g><g clip-path="url(#73c764db7d)"><path fill="#484b4c" d="M 28.171875 234.179688 C 28.171875 239.101562 24.203125 243.09375 19.300781 243.09375 C 14.398438 243.09375 10.425781 239.101562 10.425781 234.179688 C 10.425781 229.257812 14.398438 225.265625 19.300781 225.265625 C 24.203125 225.265625 28.171875 229.257812 28.171875 234.179688 " fill-opacity="1" fill-rule="nonzero"/></g><path fill="#a5a7a6" d="M 54.585938 232.574219 C 54.265625 232.574219 53.9375 232.496094 53.632812 232.339844 C 53.574219 232.308594 46.953125 228.976562 36.660156 228.960938 C 36.636719 228.960938 36.609375 228.960938 36.585938 228.960938 C 25.613281 228.960938 19.261719 232.289062 19.203125 232.324219 C 18.1875 232.863281 16.925781 232.480469 16.382812 231.464844 C 15.839844 230.449219 16.214844 229.1875 17.226562 228.640625 C 17.515625 228.480469 24.476562 224.777344 36.585938 224.777344 C 36.613281 224.777344 36.640625 224.777344 36.667969 224.777344 C 48.03125 224.792969 55.242188 228.464844 55.542969 228.621094 C 56.566406 229.152344 56.96875 230.414062 56.441406 231.4375 C 56.070312 232.160156 55.339844 232.574219 54.585938 232.574219 " fill-opacity="1" fill-rule="nonzero"/><path fill="#a5a7a6" d="M 54.585938 240.085938 C 54.265625 240.085938 53.9375 240.011719 53.632812 239.851562 C 53.574219 239.820312 46.953125 236.488281 36.660156 236.472656 C 36.636719 236.472656 36.609375 236.472656 36.585938 236.472656 C 25.613281 236.472656 19.261719 239.804688 19.203125 239.839844 C 18.1875 240.378906 16.925781 239.996094 16.382812 238.980469 C 15.839844 237.964844 16.214844 236.703125 17.226562 236.152344 C 17.515625 235.996094 24.476562 232.289062 36.585938 232.289062 C 36.613281 232.289062 36.640625 232.289062 36.667969 232.289062 C 48.03125 232.304688 55.242188 235.980469 55.542969 236.136719 C 56.566406 236.664062 56.96875 237.925781 56.441406 238.953125 C 56.070312 239.671875 55.339844 240.085938 54.585938 240.085938 " fill-opacity="1" fill-rule="nonzero"/><g clip-path="url(#26621cf254)"><path fill="#484b4c" d="M 64.335938 262.253906 C 64.335938 267.179688 60.363281 271.167969 55.460938 271.167969 C 50.558594 271.167969 46.589844 267.179688 46.589844 262.253906 C 46.589844 257.332031 50.558594 253.339844 55.460938 253.339844 C 60.363281 253.339844 64.335938 257.332031 64.335938 262.253906 " fill-opacity="1" fill-rule="nonzero"/></g><g clip-path="url(#6241d9e636)"><path fill="#484b4c" d="M 28.171875 262.253906 C 28.171875 267.179688 24.203125 271.167969 19.300781 271.167969 C 14.398438 271.167969 10.425781 267.179688 10.425781 262.253906 C 10.425781 257.332031 14.398438 253.339844 19.300781 253.339844 C 24.203125 253.339844 28.171875 257.332031 28.171875 262.253906 " fill-opacity="1" fill-rule="nonzero"/></g><path fill="#a5a7a6" d="M 54.585938 260.648438 C 54.265625 260.648438 53.9375 260.574219 53.632812 260.414062 C 53.574219 260.382812 46.953125 257.050781 36.660156 257.039062 C 36.636719 257.039062 36.609375 257.039062 36.585938 257.039062 C 25.613281 257.039062 19.261719 260.367188 19.203125 260.398438 C 18.1875 260.941406 16.925781 260.558594 16.382812 259.542969 C 15.839844 258.527344 16.214844 257.261719 17.226562 256.714844 C 17.515625 256.558594 24.476562 252.851562 36.585938 252.851562 C 36.613281 252.851562 36.640625 252.851562 36.667969 252.851562 C 48.03125 252.867188 55.242188 256.539062 55.542969 256.695312 C 56.566406 257.226562 56.96875 258.488281 56.441406 259.515625 C 56.070312 260.234375 55.339844 260.648438 54.585938 260.648438 " fill-opacity="1" fill-rule="nonzero"/><path fill="#a5a7a6" d="M 54.585938 268.164062 C 54.265625 268.164062 53.9375 268.085938 53.632812 267.929688 C 53.570312 267.898438 46.953125 264.566406 36.660156 264.550781 C 36.636719 264.550781 36.609375 264.550781 36.585938 264.550781 C 25.613281 264.550781 19.265625 267.878906 19.203125 267.914062 C 18.1875 268.457031 16.925781 268.074219 16.382812 267.058594 C 15.839844 266.042969 16.214844 264.777344 17.226562 264.230469 C 17.515625 264.074219 24.476562 260.367188 36.585938 260.367188 C 36.613281 260.367188 36.640625 260.367188 36.667969 260.367188 C 48.03125 260.382812 55.242188 264.054688 55.542969 264.210938 C 56.566406 264.742188 56.96875 266.003906 56.441406 267.03125 C 56.070312 267.75 55.339844 268.164062 54.585938 268.164062 " fill-opacity="1" fill-rule="nonzero"/><g clip-path="url(#9c121897d5)"><path fill="#484b4c" d="M 64.335938 290.332031 C 64.335938 295.253906 60.363281 299.246094 55.460938 299.246094 C 50.558594 299.246094 46.589844 295.253906 46.589844 290.332031 C 46.589844 285.410156 50.558594 281.417969 55.460938 281.417969 C 60.363281 281.417969 64.335938 285.410156 64.335938 290.332031 " fill-opacity="1" fill-rule="nonzero"/></g><g clip-path="url(#9d1d9f94cf)"><path fill="#484b4c" d="M 28.171875 290.332031 C 28.171875 295.253906 24.203125 299.246094 19.300781 299.246094 C 14.398438 299.246094 10.425781 295.253906 10.425781 290.332031 C 10.425781 285.410156 14.398438 281.417969 19.300781 281.417969 C 24.203125 281.417969 28.171875 285.410156 28.171875 290.332031 " fill-opacity="1" fill-rule="nonzero"/></g><path fill="#a5a7a6" d="M 54.585938 288.722656 C 54.265625 288.722656 53.9375 288.648438 53.632812 288.492188 C 53.570312 288.460938 46.953125 285.125 36.660156 285.113281 C 36.636719 285.113281 36.609375 285.113281 36.585938 285.113281 C 25.613281 285.113281 19.265625 288.441406 19.203125 288.476562 C 18.1875 289.015625 16.925781 288.636719 16.382812 287.621094 C 15.839844 286.605469 16.214844 285.339844 17.226562 284.792969 C 17.515625 284.632812 24.476562 280.929688 36.585938 280.929688 C 36.613281 280.929688 36.640625 280.929688 36.667969 280.929688 C 48.03125 280.945312 55.242188 284.617188 55.542969 284.773438 C 56.566406 285.300781 56.96875 286.5625 56.441406 287.589844 C 56.070312 288.3125 55.339844 288.722656 54.585938 288.722656 " fill-opacity="1" fill-rule="nonzero"/><path fill="#a5a7a6" d="M 54.585938 296.238281 C 54.265625 296.238281 53.9375 296.164062 53.632812 296.003906 C 53.570312 295.972656 46.953125 292.640625 36.660156 292.625 C 36.636719 292.625 36.609375 292.625 36.585938 292.625 C 25.613281 292.625 19.265625 295.957031 19.203125 295.988281 C 18.1875 296.53125 16.925781 296.148438 16.382812 295.132812 C 15.839844 294.117188 16.214844 292.851562 17.226562 292.304688 C 17.515625 292.148438 24.476562 288.441406 36.585938 288.441406 C 36.613281 288.441406 36.640625 288.441406 36.667969 288.441406 C 48.03125 288.457031 55.242188 292.128906 55.542969 292.285156 C 56.566406 292.816406 56.96875 294.078125 56.441406 295.105469 C 56.070312 295.824219 55.339844 296.238281 54.585938 296.238281 " fill-opacity="1" fill-rule="nonzero"/><g clip-path="url(#e178c2e819)"><path fill="#484b4c" d="M 64.335938 318.40625 C 64.335938 323.332031 60.363281 327.320312 55.460938 327.320312 C 50.558594 327.320312 46.589844 323.332031 46.589844 318.40625 C 46.589844 313.484375 50.558594 309.496094 55.460938 309.496094 C 60.363281 309.496094 64.335938 313.484375 64.335938 318.40625 " fill-opacity="1" fill-rule="nonzero"/></g><g clip-path="url(#945031c83f)"><path fill="#484b4c" d="M 28.171875 318.40625 C 28.171875 323.332031 24.203125 327.320312 19.300781 327.320312 C 14.398438 327.320312 10.425781 323.332031 10.425781 318.40625 C 10.425781 313.484375 14.398438 309.496094 19.300781 309.496094 C 24.203125 309.496094 28.171875 313.484375 28.171875 318.40625 " fill-opacity="1" fill-rule="nonzero"/></g><path fill="#a5a7a6" d="M 54.585938 316.800781 C 54.265625 316.800781 53.9375 316.726562 53.632812 316.566406 C 53.570312 316.535156 46.953125 313.203125 36.660156 313.1875 C 36.636719 313.1875 36.609375 313.1875 36.585938 313.1875 C 25.613281 313.1875 19.265625 316.515625 19.203125 316.550781 C 18.1875 317.09375 16.925781 316.710938 16.382812 315.695312 C 15.839844 314.679688 16.214844 313.417969 17.226562 312.867188 C 17.515625 312.707031 24.476562 309.003906 36.585938 309.003906 C 36.613281 309.003906 36.640625 309.003906 36.667969 309.003906 C 48.03125 309.019531 55.242188 312.691406 55.542969 312.847656 C 56.566406 313.378906 56.96875 314.640625 56.441406 315.667969 C 56.070312 316.386719 55.339844 316.800781 54.585938 316.800781 " fill-opacity="1" fill-rule="nonzero"/><path fill="#a5a7a6" d="M 54.585938 324.316406 C 54.265625 324.316406 53.9375 324.238281 53.632812 324.082031 C 53.574219 324.050781 46.953125 320.71875 36.660156 320.703125 C 36.636719 320.703125 36.609375 320.703125 36.585938 320.703125 C 25.613281 320.703125 19.261719 324.03125 19.203125 324.066406 C 18.1875 324.605469 16.925781 324.222656 16.382812 323.210938 C 15.839844 322.195312 16.214844 320.929688 17.226562 320.382812 C 17.515625 320.222656 24.476562 316.519531 36.585938 316.519531 C 36.613281 316.519531 36.640625 316.519531 36.667969 316.519531 C 48.03125 316.535156 55.242188 320.203125 55.542969 320.363281 C 56.566406 320.890625 56.96875 322.15625 56.441406 323.179688 C 56.070312 323.902344 55.339844 324.316406 54.585938 324.316406 " fill-opacity="1" fill-rule="nonzero"/><g clip-path="url(#52a8091458)"><path fill="#484b4c" d="M 64.335938 346.484375 C 64.335938 351.40625 60.363281 355.398438 55.460938 355.398438 C 50.558594 355.398438 46.589844 351.40625 46.589844 346.484375 C 46.589844 341.5625 50.558594 337.570312 55.460938 337.570312 C 60.363281 337.570312 64.335938 341.5625 64.335938 346.484375 " fill-opacity="1" fill-rule="nonzero"/></g><g clip-path="url(#f9615ab064)"><path fill="#484b4c" d="M 28.171875 346.484375 C 28.171875 351.40625 24.203125 355.398438 19.300781 355.398438 C 14.398438 355.398438 10.425781 351.40625 10.425781 346.484375 C 10.425781 341.5625 14.398438 337.570312 19.300781 337.570312 C 24.203125 337.570312 28.171875 341.5625 28.171875 346.484375 " fill-opacity="1" fill-rule="nonzero"/></g><path fill="#a5a7a6" d="M 54.585938 344.875 C 54.265625 344.875 53.9375 344.800781 53.632812 344.640625 C 53.574219 344.609375 46.953125 341.277344 36.660156 341.265625 C 36.636719 341.265625 36.609375 341.265625 36.585938 341.265625 C 25.613281 341.265625 19.261719 344.59375 19.203125 344.628906 C 18.1875 345.167969 16.925781 344.789062 16.382812 343.773438 C 15.839844 342.757812 16.214844 341.492188 17.226562 340.945312 C 17.515625 340.785156 24.476562 337.082031 36.585938 337.082031 C 36.613281 337.082031 36.640625 337.082031 36.667969 337.082031 C 48.03125 337.09375 55.242188 340.769531 55.542969 340.925781 C 56.566406 341.453125 56.96875 342.714844 56.441406 343.742188 C 56.070312 344.464844 55.339844 344.875 54.585938 344.875 " fill-opacity="1" fill-rule="nonzero"/><path fill="#a5a7a6" d="M 54.585938 352.390625 C 54.265625 352.390625 53.9375 352.316406 53.632812 352.15625 C 53.574219 352.125 46.953125 348.792969 36.660156 348.78125 C 36.636719 348.78125 36.609375 348.78125 36.585938 348.78125 C 25.613281 348.78125 19.261719 352.105469 19.203125 352.140625 C 18.1875 352.683594 16.925781 352.300781 16.382812 351.285156 C 15.839844 350.269531 16.214844 349.003906 17.226562 348.457031 C 17.515625 348.300781 24.476562 344.59375 36.585938 344.59375 C 36.613281 344.59375 36.640625 344.59375 36.667969 344.59375 C 48.03125 344.609375 55.242188 348.28125 55.542969 348.4375 C 56.566406 348.96875 56.96875 350.230469 56.441406 351.257812 C 56.070312 351.976562 55.339844 352.390625 54.585938 352.390625 " fill-opacity="1" fill-rule="nonzero"/><g clip-path="url(#9cd5df4cdc)"><path fill="#484b4c" d="M 64.335938 374.558594 C 64.335938 379.480469 60.363281 383.472656 55.460938 383.472656 C 50.558594 383.472656 46.589844 379.480469 46.589844 374.558594 C 46.589844 369.636719 50.558594 365.644531 55.460938 365.644531 C 60.363281 365.644531 64.335938 369.636719 64.335938 374.558594 " fill-opacity="1" fill-rule="nonzero"/></g><g clip-path="url(#336826c6ef)"><path fill="#484b4c" d="M 28.171875 374.558594 C 28.171875 379.480469 24.203125 383.472656 19.300781 383.472656 C 14.398438 383.472656 10.425781 379.480469 10.425781 374.558594 C 10.425781 369.636719 14.398438 365.644531 19.300781 365.644531 C 24.203125 365.644531 28.171875 369.636719 28.171875 374.558594 " fill-opacity="1" fill-rule="nonzero"/></g><path fill="#a5a7a6" d="M 54.585938 372.953125 C 54.265625 372.953125 53.9375 372.878906 53.632812 372.71875 C 53.570312 372.6875 46.953125 369.355469 36.660156 369.339844 C 36.636719 369.339844 36.609375 369.339844 36.585938 369.339844 C 25.613281 369.339844 19.265625 372.667969 19.203125 372.703125 C 18.1875 373.246094 16.925781 372.863281 16.382812 371.847656 C 15.839844 370.832031 16.214844 369.566406 17.226562 369.019531 C 17.515625 368.863281 24.476562 365.15625 36.585938 365.15625 C 36.613281 365.15625 36.640625 365.15625 36.667969 365.15625 C 48.03125 365.171875 55.242188 368.84375 55.542969 369 C 56.566406 369.53125 56.96875 370.792969 56.441406 371.820312 C 56.070312 372.539062 55.339844 372.953125 54.585938 372.953125 " fill-opacity="1" fill-rule="nonzero"/><path fill="#a5a7a6" d="M 54.585938 380.464844 C 54.265625 380.464844 53.9375 380.390625 53.632812 380.230469 C 53.570312 380.199219 46.953125 376.867188 36.660156 376.855469 C 36.636719 376.855469 36.609375 376.855469 36.585938 376.855469 C 25.613281 376.855469 19.265625 380.183594 19.203125 380.21875 C 18.1875 380.757812 16.925781 380.378906 16.382812 379.363281 C 15.839844 378.347656 16.214844 377.082031 17.226562 376.535156 C 17.515625 376.375 24.476562 372.671875 36.585938 372.671875 C 36.613281 372.671875 36.640625 372.671875 36.667969 372.671875 C 48.03125 372.6875 55.242188 376.359375 55.542969 376.515625 C 56.566406 377.042969 56.96875 378.304688 56.441406 379.332031 C 56.070312 380.054688 55.339844 380.464844 54.585938 380.464844 " fill-opacity="1" fill-rule="nonzero"/><g clip-path="url(#064c9917d0)"><path fill="#484b4c" d="M 64.335938 402.636719 C 64.335938 407.558594 60.363281 411.546875 55.460938 411.546875 C 50.558594 411.546875 46.589844 407.558594 46.589844 402.636719 C 46.589844 397.710938 50.558594 393.71875 55.460938 393.71875 C 60.363281 393.71875 64.335938 397.710938 64.335938 402.636719 " fill-opacity="1" fill-rule="nonzero"/></g><g clip-path="url(#6611fcd964)"><path fill="#484b4c" d="M 28.171875 402.636719 C 28.171875 407.558594 24.203125 411.546875 19.300781 411.546875 C 14.398438 411.546875 10.425781 407.558594 10.425781 402.636719 C 10.425781 397.710938 14.398438 393.71875 19.300781 393.71875 C 24.203125 393.71875 28.171875 397.710938 28.171875 402.636719 " fill-opacity="1" fill-rule="nonzero"/></g><path fill="#a5a7a6" d="M 54.585938 401.027344 C 54.265625 401.027344 53.9375 400.953125 53.632812 400.792969 C 53.570312 400.761719 46.953125 397.429688 36.660156 397.414062 C 36.636719 397.414062 36.609375 397.414062 36.585938 397.414062 C 25.613281 397.414062 19.265625 400.746094 19.203125 400.777344 C 18.1875 401.320312 16.925781 400.9375 16.382812 399.921875 C 15.839844 398.90625 16.214844 397.644531 17.226562 397.09375 C 17.515625 396.9375 24.476562 393.230469 36.585938 393.230469 C 36.613281 393.230469 36.640625 393.230469 36.667969 393.230469 C 48.03125 393.246094 55.242188 396.917969 55.542969 397.078125 C 56.566406 397.605469 56.96875 398.867188 56.441406 399.894531 C 56.070312 400.613281 55.339844 401.027344 54.585938 401.027344 " fill-opacity="1" fill-rule="nonzero"/><path fill="#a5a7a6" d="M 54.585938 408.542969 C 54.265625 408.542969 53.9375 408.46875 53.632812 408.308594 C 53.570312 408.277344 46.953125 404.945312 36.660156 404.929688 C 36.636719 404.929688 36.609375 404.929688 36.585938 404.929688 C 25.613281 404.929688 19.265625 408.257812 19.203125 408.292969 C 18.1875 408.835938 16.925781 408.453125 16.382812 407.4375 C 15.839844 406.421875 16.214844 405.160156 17.226562 404.609375 C 17.515625 404.449219 24.476562 400.746094 36.585938 400.746094 C 36.613281 400.746094 36.640625 400.746094 36.667969 400.746094 C 48.03125 400.761719 55.242188 404.433594 55.542969 404.589844 C 56.566406 405.121094 56.96875 406.382812 56.441406 407.410156 C 56.070312 408.128906 55.339844 408.542969 54.585938 408.542969 " fill-opacity="1" fill-rule="nonzero"/><g clip-path="url(#66eb3eaa84)"><path fill="#484b4c" d="M 64.335938 430.710938 C 64.335938 435.632812 60.363281 439.625 55.460938 439.625 C 50.558594 439.625 46.589844 435.632812 46.589844 430.710938 C 46.589844 425.789062 50.558594 421.796875 55.460938 421.796875 C 60.363281 421.796875 64.335938 425.789062 64.335938 430.710938 " fill-opacity="1" fill-rule="nonzero"/></g><g clip-path="url(#9aebe6c9bc)"><path fill="#484b4c" d="M 28.171875 430.710938 C 28.171875 435.632812 24.203125 439.625 19.300781 439.625 C 14.398438 439.625 10.425781 435.632812 10.425781 430.710938 C 10.425781 425.789062 14.398438 421.796875 19.300781 421.796875 C 24.203125 421.796875 28.171875 425.789062 28.171875 430.710938 " fill-opacity="1" fill-rule="nonzero"/></g><path fill="#a5a7a6" d="M 54.585938 429.105469 C 54.265625 429.105469 53.9375 429.027344 53.632812 428.871094 C 53.570312 428.839844 46.953125 425.507812 36.660156 425.492188 C 36.636719 425.492188 36.609375 425.492188 36.585938 425.492188 C 25.613281 425.492188 19.265625 428.820312 19.203125 428.851562 C 18.1875 429.394531 16.925781 429.015625 16.382812 428 C 15.839844 426.984375 16.214844 425.71875 17.226562 425.171875 C 17.515625 425.015625 24.476562 421.308594 36.585938 421.308594 C 36.613281 421.308594 36.636719 421.308594 36.667969 421.308594 C 48.03125 421.324219 55.242188 424.996094 55.542969 425.152344 C 56.566406 425.679688 56.96875 426.945312 56.441406 427.972656 C 56.070312 428.691406 55.339844 429.105469 54.585938 429.105469 " fill-opacity="1" fill-rule="nonzero"/><path fill="#a5a7a6" d="M 54.585938 436.617188 C 54.265625 436.617188 53.9375 436.542969 53.632812 436.382812 C 53.574219 436.351562 46.953125 433.019531 36.660156 433.003906 C 36.636719 433.003906 36.609375 433.003906 36.585938 433.003906 C 25.613281 433.003906 19.261719 436.335938 19.203125 436.367188 C 18.1875 436.910156 16.925781 436.53125 16.382812 435.511719 C 15.839844 434.496094 16.214844 433.234375 17.226562 432.683594 C 17.515625 432.527344 24.476562 428.820312 36.585938 428.820312 C 36.613281 428.820312 36.640625 428.820312 36.667969 428.820312 C 48.03125 428.835938 55.242188 432.511719 55.542969 432.664062 C 56.566406 433.195312 56.96875 434.457031 56.441406 435.484375 C 56.070312 436.207031 55.339844 436.617188 54.585938 436.617188 " fill-opacity="1" fill-rule="nonzero"/><g clip-path="url(#4a6aa7e730)"><path fill="#484b4c" d="M 64.335938 458.789062 C 64.335938 463.710938 60.363281 467.703125 55.460938 467.703125 C 50.558594 467.703125 46.589844 463.710938 46.589844 458.789062 C 46.589844 453.863281 50.558594 449.871094 55.460938 449.871094 C 60.363281 449.871094 64.335938 453.863281 64.335938 458.789062 " fill-opacity="1" fill-rule="nonzero"/></g><g clip-path="url(#86dbcfcebe)"><path fill="#484b4c" d="M 28.171875 458.789062 C 28.171875 463.710938 24.203125 467.703125 19.300781 467.703125 C 14.398438 467.703125 10.425781 463.710938 10.425781 458.789062 C 10.425781 453.863281 14.398438 449.871094 19.300781 449.871094 C 24.203125 449.871094 28.171875 453.863281 28.171875 458.789062 " fill-opacity="1" fill-rule="nonzero"/></g><path fill="#a5a7a6" d="M 54.585938 457.179688 C 54.265625 457.179688 53.9375 457.105469 53.632812 456.945312 C 53.574219 456.914062 46.953125 453.582031 36.660156 453.570312 C 36.636719 453.570312 36.609375 453.570312 36.585938 453.570312 C 25.613281 453.570312 19.261719 456.898438 19.203125 456.929688 C 18.1875 457.472656 16.925781 457.089844 16.382812 456.074219 C 15.839844 455.058594 16.214844 453.792969 17.226562 453.246094 C 17.515625 453.089844 24.476562 449.382812 36.585938 449.382812 C 36.613281 449.382812 36.640625 449.382812 36.667969 449.382812 C 48.03125 449.398438 55.242188 453.070312 55.542969 453.226562 C 56.566406 453.757812 56.96875 455.019531 56.441406 456.046875 C 56.070312 456.765625 55.339844 457.179688 54.585938 457.179688 " fill-opacity="1" fill-rule="nonzero"/><path fill="#a5a7a6" d="M 54.585938 464.695312 C 54.265625 464.695312 53.9375 464.617188 53.632812 464.460938 C 53.574219 464.429688 46.953125 461.097656 36.660156 461.082031 C 36.636719 461.082031 36.609375 461.082031 36.585938 461.082031 C 25.613281 461.082031 19.261719 464.410156 19.203125 464.445312 C 18.1875 464.984375 16.925781 464.605469 16.382812 463.589844 C 15.839844 462.574219 16.214844 461.308594 17.226562 460.757812 C 17.515625 460.605469 24.476562 456.898438 36.585938 456.898438 C 36.613281 456.898438 36.640625 456.898438 36.667969 456.898438 C 48.03125 456.914062 55.242188 460.585938 55.542969 460.742188 C 56.566406 461.273438 56.96875 462.535156 56.441406 463.558594 C 56.070312 464.28125 55.339844 464.695312 54.585938 464.695312 " fill-opacity="1" fill-rule="nonzero"/><g clip-path="url(#476e13a8a6)"><path fill="#484b4c" d="M 64.335938 486.863281 C 64.335938 491.785156 60.363281 495.777344 55.460938 495.777344 C 50.558594 495.777344 46.589844 491.785156 46.589844 486.863281 C 46.589844 481.941406 50.558594 477.949219 55.460938 477.949219 C 60.363281 477.949219 64.335938 481.941406 64.335938 486.863281 " fill-opacity="1" fill-rule="nonzero"/></g><g clip-path="url(#a4c58da280)"><path fill="#484b4c" d="M 28.171875 486.863281 C 28.171875 491.785156 24.203125 495.777344 19.300781 495.777344 C 14.398438 495.777344 10.425781 491.785156 10.425781 486.863281 C 10.425781 481.941406 14.398438 477.949219 19.300781 477.949219 C 24.203125 477.949219 28.171875 481.941406 28.171875 486.863281 " fill-opacity="1" fill-rule="nonzero"/></g><path fill="#a5a7a6" d="M 54.585938 485.257812 C 54.265625 485.257812 53.9375 485.179688 53.632812 485.023438 C 53.570312 484.988281 46.953125 481.660156 36.660156 481.644531 C 36.636719 481.644531 36.609375 481.644531 36.585938 481.644531 C 25.613281 481.644531 19.265625 484.972656 19.203125 485.007812 C 18.1875 485.550781 16.925781 485.167969 16.382812 484.152344 C 15.839844 483.136719 16.214844 481.871094 17.226562 481.324219 C 17.515625 481.164062 24.476562 477.460938 36.585938 477.460938 C 36.613281 477.460938 36.640625 477.460938 36.667969 477.460938 C 48.03125 477.472656 55.242188 481.148438 55.542969 481.304688 C 56.566406 481.832031 56.96875 483.09375 56.441406 484.121094 C 56.070312 484.84375 55.339844 485.257812 54.585938 485.257812 " fill-opacity="1" fill-rule="nonzero"/><path fill="#a5a7a6" d="M 54.585938 492.769531 C 54.265625 492.769531 53.9375 492.695312 53.632812 492.539062 C 53.570312 492.503906 46.953125 489.171875 36.660156 489.160156 C 36.636719 489.160156 36.609375 489.160156 36.585938 489.160156 C 25.613281 489.160156 19.265625 492.488281 19.203125 492.519531 C 18.1875 493.0625 16.925781 492.679688 16.382812 491.664062 C 15.839844 490.648438 16.214844 489.382812 17.226562 488.835938 C 17.515625 488.679688 24.476562 484.972656 36.585938 484.972656 C 36.613281 484.972656 36.640625 484.972656 36.667969 484.972656 C 48.03125 484.988281 55.242188 488.660156 55.542969 488.816406 C 56.566406 489.347656 56.96875 490.609375 56.441406 491.636719 C 56.070312 492.355469 55.339844 492.769531 54.585938 492.769531 " fill-opacity="1" fill-rule="nonzero"/><g clip-path="url(#48641a9349)"><path fill="#484b4c" d="M 64.335938 514.9375 C 64.335938 519.863281 60.363281 523.855469 55.460938 523.855469 C 50.558594 523.855469 46.589844 519.863281 46.589844 514.9375 C 46.589844 510.015625 50.558594 506.027344 55.460938 506.027344 C 60.363281 506.027344 64.335938 510.015625 64.335938 514.9375 " fill-opacity="1" fill-rule="nonzero"/></g><g clip-path="url(#501c98ae5b)"><path fill="#484b4c" d="M 28.171875 514.9375 C 28.171875 519.863281 24.203125 523.855469 19.300781 523.855469 C 14.398438 523.855469 10.425781 519.863281 10.425781 514.9375 C 10.425781 510.015625 14.398438 506.027344 19.300781 506.027344 C 24.203125 506.027344 28.171875 510.015625 28.171875 514.9375 " fill-opacity="1" fill-rule="nonzero"/></g><path fill="#a5a7a6" d="M 54.585938 513.332031 C 54.265625 513.332031 53.9375 513.257812 53.632812 513.097656 C 53.570312 513.066406 46.953125 509.734375 36.660156 509.71875 C 36.636719 509.71875 36.609375 509.71875 36.585938 509.71875 C 25.613281 509.71875 19.265625 513.046875 19.203125 513.082031 C 18.1875 513.625 16.925781 513.242188 16.382812 512.226562 C 15.839844 511.210938 16.214844 509.949219 17.226562 509.398438 C 17.515625 509.238281 24.476562 505.535156 36.585938 505.535156 C 36.613281 505.535156 36.640625 505.535156 36.667969 505.535156 C 48.03125 505.550781 55.242188 509.222656 55.542969 509.378906 C 56.566406 509.910156 56.96875 511.171875 56.441406 512.199219 C 56.070312 512.917969 55.339844 513.332031 54.585938 513.332031 " fill-opacity="1" fill-rule="nonzero"/><path fill="#a5a7a6" d="M 54.585938 520.847656 C 54.265625 520.847656 53.9375 520.769531 53.632812 520.613281 C 53.570312 520.582031 46.953125 517.25 36.660156 517.234375 C 36.636719 517.234375 36.609375 517.234375 36.585938 517.234375 C 25.613281 517.234375 19.265625 520.5625 19.203125 520.59375 C 18.1875 521.136719 16.925781 520.753906 16.382812 519.742188 C 15.839844 518.726562 16.214844 517.460938 17.226562 516.914062 C 17.515625 516.753906 24.476562 513.050781 36.585938 513.050781 C 36.613281 513.050781 36.636719 513.050781 36.667969 513.050781 C 48.03125 513.066406 55.242188 516.738281 55.542969 516.894531 C 56.566406 517.421875 56.96875 518.6875 56.441406 519.710938 C 56.070312 520.433594 55.339844 520.847656 54.585938 520.847656 " fill-opacity="1" fill-rule="nonzero"/></svg>